<?xml version="1.0" encoding="utf-8"?>
<!-- Generator: Adobe Illustrator 21.1.0, SVG Export Plug-In . SVG Version: 6.00 Build 0)  -->
<svg version="1.1" id="圖層_1" xmlns="http://www.w3.org/2000/svg" xmlns:xlink="http://www.w3.org/1999/xlink" x="0px" y="0px"
	 viewBox="0 0 88.4 88.4" style="enable-background:new 0 0 88.4 88.4;" xml:space="preserve">
<style type="text/css">
	.st0{fill:#227B7B;}
</style>
<g>
	<path class="st0" d="M44.2,88.4C19.8,88.4,0,68.6,0,44.2S19.8,0,44.2,0s44.2,19.8,44.2,44.2S68.6,88.4,44.2,88.4z M44.2,1.6
		C20.7,1.6,1.6,20.7,1.6,44.2s19.1,42.6,42.6,42.6c23.5,0,42.6-19.1,42.6-42.6S67.7,1.6,44.2,1.6z"/>
</g>
<g>
	<g>
		<g>
			<path class="st0" d="M35.5,48.3h-6v14.5h-2.3V48.3h-6v-2.2h14.3V48.3z"/>
		</g>
		<g>
			<path class="st0" d="M51.8,54.5c0,2.4-0.6,4.4-1.9,6c-1.4,1.7-3.2,2.6-5.5,2.6c-2.3,0-4.2-0.9-5.5-2.6c-1.3-1.6-1.9-3.6-1.9-6
				c0-2.4,0.6-4.4,1.9-6c1.4-1.7,3.2-2.5,5.5-2.5c2.3,0,4.2,0.8,5.5,2.5C51.2,50.1,51.8,52.1,51.8,54.5z M49.4,54.5
				c0-1.9-0.5-3.4-1.4-4.6c-0.9-1.1-2.1-1.7-3.6-1.7c-1.5,0-2.7,0.6-3.6,1.7c-0.9,1.1-1.4,2.7-1.4,4.6c0,1.9,0.5,3.4,1.4,4.6
				c0.9,1.2,2.1,1.7,3.6,1.7c1.5,0,2.7-0.6,3.6-1.7C49,57.9,49.4,56.4,49.4,54.5z"/>
		</g>
		<g>
			<path class="st0" d="M67.2,50.9c0,1.5-0.6,2.7-1.7,3.5c-1,0.8-2.4,1.2-4.1,1.2h-5v7.2h-2.3V46.2h7.3c1.7,0,3.1,0.4,4.1,1.2
				C66.7,48.2,67.2,49.4,67.2,50.9z M64.8,50.9c0-1.7-1.1-2.6-3.4-2.6h-4.9v5.1h4.9C63.7,53.4,64.8,52.6,64.8,50.9z"/>
		</g>
	</g>
	<polygon class="st0" points="35.6,30 37.2,31.6 43.1,25.7 43.1,38.6 45.3,38.6 45.3,25.7 51.2,31.6 52.8,30 44.2,21.4 	"/>
</g>
</svg>
