<?xml version="1.0" encoding="utf-8"?>
<!-- Generator: Adobe Illustrator 21.1.0, SVG Export Plug-In . SVG Version: 6.00 Build 0)  -->
<svg version="1.1" id="圖層_1" xmlns="http://www.w3.org/2000/svg" xmlns:xlink="http://www.w3.org/1999/xlink" x="0px" y="0px"
	 viewBox="0 0 218.4 120.3" style="enable-background:new 0 0 218.4 120.3;" xml:space="preserve">
<style type="text/css">
	.st0{fill:#1D2088;}
	.st1{fill-rule:evenodd;clip-rule:evenodd;fill:#1D2088;}
	.st2{fill:#C40E24;}
	.st3{fill:#026733;}
	.st4{fill:#C3B600;}
	.st5{fill:#FFFFFF;}
	.st6{fill:#FFF100;}
</style>
<g>
	<g>
		<rect x="101.3" y="25.6" class="st0" width="38.6" height="6.3"/>
		<rect x="115.1" y="30.2" class="st0" width="11.8" height="46.4"/>
		<polygon class="st0" points="79.4,25.9 68.8,25.9 68.6,26.2 50.3,49.5 50.9,54.1 65,76.4 80,76.4 59.1,47.1 		"/>
		<path class="st1" d="M39.6,25.8c0,0,0,7.2,0,15.2l-0.1,0c0,0,0,0.7,0.1,1.7c0,2.8,0,5.7,0,8.3c-0.2,3.9-0.5,8.8-1.5,12.6
			c-1.7,5-5.2,7.1-7.4,8c-1.8,0.6-3.7,1-5.9,1.1c-11.8,0.7-12.5-13.7-12.5-13.7v-7.6h0V34.3h0v-8.4H0.8v33.3c0,2.5,0.4,4.8,1.3,7
			l0.1,0c0,0,3,11.4,20,11.4c0.6,0,1.2,0,1.7,0l3.3-0.2c0,0,6.9-0.7,11.3-3.6c0.4-0.3,0.8-0.6,1.1-0.9c1-1.1,0.8-0.8,0,0.1v3.8h11.6
			V25.8H39.6z"/>
		<path class="st0" d="M201.1,51.6c1.5-0.2,10.8,0.4,11.9-12c1.1-12.5-12.2-13.7-12.2-13.7h-10.4h-1.1h-10.7v50.7h11.8V54.1
			L203,76.7h15.4L201.1,51.6z M190.3,51.2L190.3,51.2C190.3,51.2,190.4,51.2,190.3,51.2L190.3,51.2z M190,49.8V31.3
			c2.1,0,6.2,0.1,8.5,1.3c0.6,0.5,1.2,1.1,1.7,2c0,0.1,0.1,0.1,0.1,0.2c0.8,1.7,1.2,4.2,0.2,8.3C198.5,50.9,190,49.8,190,49.8z"/>
		<path d="M53.8,26.1"/>
		<path class="st2" d="M144.8,16.8c-10.7-7.6-23.3-15.4-39.9-16.6C90-0.9,79.7,3.1,70.8,8.8c-5.9,3.7-11.6,8.1-15.1,13.2
			c-0.8,1.2-1.2,2.3-1.2,2.3s3.5-3.7,7.1-6.7c9.1-7.1,20-13.3,34.5-13.2c19.2,0,32.8,10.1,43.7,18.9L144.8,16.8z"/>
		<path class="st3" d="M128.5,20.1c-8.8-5.8-19.2-11.8-32.8-12.7C83.5,6.6,75,9.7,67.7,14c-4.8,2.8-9.5,6.2-12.4,10.1
			c-0.7,0.9-1,1.7-1,1.7s2.9-2.9,5.8-5.1c7.4-5.4,16.4-10.1,28.3-10.1c15.8,0,26.9,7.7,35.9,14.4L128.5,20.1z"/>
		<polygon class="st4" points="157.1,16.5 166.4,35.4 187.2,38.4 172.1,53.1 175.7,73.8 157.1,64 138.5,73.8 142,53.1 127,38.4 
			147.8,35.4 		"/>
		<polygon class="st5" points="158.9,16.9 167.3,34 186.2,36.7 172.5,50.1 175.8,68.9 158.9,60 142,68.9 145.2,50.1 131.5,36.7 
			150.4,34 		"/>
		<polygon class="st6" points="158.7,26.7 164.1,37.6 176.1,39.3 167.4,47.8 169.5,59.8 158.7,54.1 148,59.8 150,47.8 141.3,39.3 
			153.4,37.6 		"/>
		<path class="st0" d="M106.5,61.1c0-2.4-0.7-5.1-2.5-8c-1.4-2-4.4-4.9-10.2-7.4c-0.8-0.3-1.4-0.6-1.8-0.9c-3.4-1.6-6.4-3.3-7.2-6.1
			c-0.2-0.7-0.3-1.5-0.3-2.1c0-0.6,0.1-1.3,0.3-2c1-3.1,4.5-4.9,8-4.7c5.1,0.7,7.4,6.1,7.4,6.1h1.6l0.2-1.5l0.8-6.2l0,0l0.1-1l0,0
			c0,0-8.1-4.8-16.9-1.7C77.1,28.7,74.8,37,75,41.7c0.2,4.4,0.6,9.3,12.2,14.3c0.2,0.1,0.5,0.3,0.7,0.4c3.7,2,8.8,4.3,9.5,7.6
			c1.7,8.6-8.3,10.3-13.9,7.4c-1-0.7-2.6-2.3-3.8-5.9h-3c0,1.2-0.1,6-0.5,6.9c-0.4,0.9,4.1,5.2,11.6,5.2c0.9,0.1,3.6,0.2,6.8-0.9
			c0.4-0.1,1-0.3,1.8-0.7c1.5-0.6,3-1.5,4.3-2.5c0.3-0.2,0.6-0.5,0.9-0.7c0,0,0,0,0,0l0,0c0.1-0.1,0.2-0.2,0.3-0.3
			C106.1,69.1,106.8,64.6,106.5,61.1z"/>
	</g>
	<g>
		<path d="M21.6,104.4v5.8h2.2v2.3h-9c0.8,1.4,1.7,2.4,2.8,3c1.3,0.8,3.5,1.7,6.7,2.6l-1.2,2.3c-2.9-0.9-5.1-1.8-6.6-2.8
			c-1.7-1.1-3.1-2.8-4-5h-0.3c-0.5,1.3-1.2,2.5-2.2,3.5c-1.7,1.9-4.6,3.3-8.6,4.3L0,118.1c4-1,6.8-2.3,8.2-3.8
			c0.5-0.6,0.9-1.2,1.3-1.8H0.3v-2.3h2.4v-5.8h7.8V102H13v2.4H21.6z M0.1,98.5h6.1v-2.5h2.5v2.5h6.8v-2.5h2.5v2.5h6.2v2.2h-6.2v1.9
			h-2.5v-1.9H8.6v1.9H6.2v-1.9H0.1V98.5z M5,110.2h5.2c0.1-0.7,0.2-1.5,0.2-2.3v-1.3H5V110.2z M13,106.5v1.3c0,0.8-0.1,1.6-0.2,2.3
			h6.5v-3.6H13z"/>
		<path d="M27.7,100.8h3v-4.7h2.5v4.7H36v2.3h-2.8v5c0.8-0.4,1.6-0.9,2.3-1.5v2.5c-0.8,0.5-1.6,1-2.3,1.4v7c0,0.9-0.2,1.6-0.6,2
			c-0.4,0.4-1.1,0.6-2.2,0.6h-1.7l-0.5-2.6c0.6,0.1,1.2,0.2,1.6,0.2c0.7,0,1-0.2,1-0.6v-5.3c-0.9,0.4-1.8,0.7-2.7,1l-0.3-2.6
			c1-0.2,2-0.4,3-0.9V103h-3V100.8z M35.9,106h15.9v2.2H41.6c-0.3,0.5-0.6,1-0.9,1.4h10.4c-0.1,4.4-0.3,7.1-0.6,8.2
			c-0.1,0.8-0.5,1.4-1.1,1.8c-0.4,0.3-1.8,0.5-4.3,0.5l-0.5-2.4c0.8,0.1,1.4,0.1,1.8,0.1c0.9,0,1.5-0.1,1.7-0.4
			c0.4-0.5,0.6-2.5,0.7-5.8h-1.1c-1,2.2-2.1,3.9-3.2,5c-1.3,1.4-3.3,2.7-5.9,3.7l-1.2-2c2.4-0.9,4.3-2,5.6-3.2
			c0.9-0.9,1.7-2,2.4-3.5h-1.7c-0.7,1.1-1.5,2.1-2.5,2.9c-1.2,1.1-2.8,2.1-4.7,3l-1.3-1.7c1.7-0.7,3.1-1.5,4.2-2.4
			c0.6-0.4,1.2-1,1.8-1.8h-2.1c-1,0.9-2.2,1.8-3.6,2.6l-1.4-1.8c1.5-0.8,2.7-1.6,3.7-2.5c0.5-0.4,1-1,1.5-1.7h-3.1V106z M37.2,96.8
			h13v8.1h-13V96.8z M39.6,100h8.2v-1.4h-8.2V100z M47.8,103.1v-1.4h-8.2v1.4H47.8z"/>
		<path d="M64.6,103.3c-0.3-1-0.7-1.9-1-2.8l2.2-0.7c0.7,1.6,1.3,3.2,1.8,5c0.9-0.7,1.6-1.4,2.1-2.1c0.6-0.9,1.1-2.1,1.4-3.6h-3.3
			V97h11.1c0,4.8-0.1,7.6-0.3,8.5c-0.2,0.7-0.5,1.2-1,1.4c-0.5,0.3-1.6,0.4-3.1,0.4c-0.5,0-1.1,0-1.8-0.1l-0.4-2.3
			c0.7,0.1,1.5,0.2,2.3,0.2c1,0,1.6-0.2,1.7-0.6c0.2-0.5,0.3-2.3,0.3-5.2h-3.1c-0.4,2-0.9,3.6-1.6,4.8c-0.9,1.4-2.2,2.7-3.9,3.8
			l-1.2-1.5l-1.1,0.5c-0.1-0.5-0.2-0.9-0.4-1.3c-2.8,0.9-5.9,1.7-9.2,2.2l-0.3-2.5c0.7-0.1,1.4-0.1,2.1-0.2l-1.2-6.7
			c2.8-0.3,5.8-1,9-2.2l0.9,2.3c-1.5,0.6-3.9,1.2-7.3,1.8l0.9,4.4C61.5,104.2,63,103.8,64.6,103.3z M77.4,108.3v12H75v-1.1H60.4v1.1
			H58v-12H77.4z M60.4,112.7h6v-2.3h-6V112.7z M60.4,117h6v-2.3h-6V117z M68.7,110.4v2.3H75v-2.3H68.7z M68.7,117H75v-2.3h-6.3V117z
			"/>
		<path d="M90.4,96.2l0.8,2c-0.9,0.1-2.4,0.3-4.4,0.5l0.1,1.3h4v1.7h-3.8l0.1,1.3h3.8v1.8h-3.6l0.1,1.6h15.4l0.1-1.6h-3.4v-1.8h3.5
			l0.1-1.2h-3.6v-1.7h3.8l0.1-1.4h-4.1v-2.1h6.5l-0.7,9.9h1.8v5.1h-2.4v-3.1H85.9v3.1h-2.4v-5.1h1.6L84.5,97
			C86.4,96.9,88.3,96.6,90.4,96.2z M87.8,110h14.9v1.8c-1.8,0.8-3.8,1.5-6,2.3h9.8v2.1h-10v2.3c0,0.5-0.2,1-0.4,1.2
			c-0.4,0.4-0.9,0.6-1.4,0.6h-3.9l-0.4-2.1c0.9,0.1,1.9,0.1,3,0.1c0.5,0,0.7-0.2,0.7-0.5v-1.7H83.9v-2.1h10.2v-0.9
			c1.5-0.3,3.1-0.8,4.7-1.3h-11V110z M97.2,96.2l1.5,0.9c-0.6,0.6-1.1,1.1-1.6,1.5c0.4,0.4,0.9,0.7,1.2,1L97,101
			c-0.4-0.4-0.9-0.9-1.4-1.3c-0.9,0.5-2,1-3.2,1.5l-1-1.7c0.9-0.2,1.8-0.6,2.7-1c-0.6-0.4-1.2-0.8-1.8-1.2l1.2-1.1
			c0.8,0.5,1.5,0.9,2.2,1.4C96.2,97.2,96.7,96.7,97.2,96.2z M97.5,101.1L99,102c-0.7,0.7-1.3,1.3-1.9,1.8c0.5,0.4,1,0.8,1.5,1.2
			l-1.3,1.3c-0.5-0.5-1.1-1-1.7-1.5c-0.8,0.5-1.8,1-2.9,1.4l-1-1.6c0.8-0.2,1.6-0.6,2.4-0.9c-0.5-0.4-1.1-0.7-1.7-1.1l1.2-1.1
			c0.7,0.4,1.4,0.9,2,1.3C96.3,102.2,96.9,101.7,97.5,101.1z"/>
		<path d="M121.9,96.1l1.1,2.1c-2.7,0.5-5.8,0.8-9.1,0.9v1.1h9.2v5.3h-6.5l1.1,0.5c-0.2,0.6-0.5,1.2-0.7,1.6h2.5
			c-0.2-0.4-0.5-0.9-0.9-1.3l1.8-0.6c0.4,0.6,0.8,1.2,1.1,2h2.3v1.8h-2.4v1.2h2.1v1.7h-2.1v1.3h2.1v1.5h-2.1v1.4h2.4v1.7h-6.8v1.3
			H115v-9.2c-0.3,0.3-0.5,0.6-0.8,0.9l-0.4-1.3c-0.1,1.4-0.2,2.8-0.4,4.3c-0.2,2-0.7,3.9-1.2,5.7l-1.6-1.8c0.4-1.5,0.6-3,0.8-4.6
			c0.2-1.7,0.3-3.7,0.3-5.9V97.2C115.8,97.2,119.2,96.8,121.9,96.1z M113.8,109c0.4-0.5,0.8-0.9,1.1-1.4c0.4-0.5,0.8-1.2,1.1-2.2
			h-2.2v2.5C113.8,108.3,113.8,108.6,113.8,109z M113.8,103.6h7.1v-1.7h-7.1V103.6z M119.3,110.7v-1.2h-2.4v1.2H119.3z M119.3,113.7
			v-1.3h-2.4v1.3H119.3z M116.9,116.6h2.4v-1.4h-2.4V116.6z M123.6,96.9h11v2.1h-4.4c-0.1,0.7-0.3,1.4-0.5,2.1h4.1v13.9h-9.6V101
			h3.2c0.2-0.7,0.4-1.4,0.6-2.1h-4.5V96.9z M126.6,115.3l1.7,0.8c-0.7,1.6-1.6,2.9-2.6,4l-1.9-1.3
			C124.9,117.8,125.8,116.6,126.6,115.3z M126.6,104.9h5v-2h-5V104.9z M126.6,108.8h5v-2.2h-5V108.8z M131.6,112.9v-2.3h-5v2.3
			H131.6z M131.6,115.2c1.3,1.1,2.4,2.3,3.3,3.4l-1.7,1.7c-0.7-1.1-1.8-2.3-3.2-3.6L131.6,115.2z"/>
		<path d="M149.5,96.9v9.9h-7.7v13.5h-2.3V96.9H149.5z M141.8,100.9h5.4v-2h-5.4V100.9z M141.8,104.7h5.4v-1.9h-5.4V104.7z
			 M145.1,108.8h10.5v7.3h-10.5V108.8z M153.3,114.1v-3.2h-6v3.2H153.3z M151.3,105.7v-8.9h10.3v20.4c0,0.9-0.2,1.6-0.6,2.1
			c-0.4,0.4-0.9,0.6-1.5,0.6h-4.1l-0.5-2.6l3.7,0.2c0.5,0,0.7-0.4,0.7-1.1v-9.7h-7.9V105.7z M153.7,100.9h5.6v-2h-5.6V100.9z
			 M159.2,104.7v-1.9h-5.6v1.9H159.2z"/>
		<path d="M172.2,97.2l2.6,0.9c-0.9,2.7-1.8,4.6-2.5,5.7c-0.7,1.3-1.8,2.8-3.5,4.6l-2.2-1.8c1.4-1.5,2.6-2.9,3.5-4.3
			C170.9,100.9,171.6,99.2,172.2,97.2z M175.8,104.2l2.8,1c-1.7,4.4-3.4,8.1-5.1,10.9c3.8-0.1,7.3-0.3,10.4-0.7
			c-0.8-1.8-1.7-3.5-2.6-5.2l2.6-0.8c1.8,3,3.4,6.4,4.8,10.2l-2.9,0.7c-0.3-0.9-0.6-1.8-1-2.7c-3.5,0.5-9.2,0.9-16.9,1.3l-0.4-2.7
			c1,0,2,0,3-0.1C172.1,113.3,173.9,109.4,175.8,104.2z M177,96.7h7.3c1,3.2,3,6.3,6.1,9.2l-1.7,2.5c-1.5-1.4-2.7-2.8-3.7-4.2
			c-1.1-1.5-2-3.3-2.6-5.2H177V96.7z"/>
		<path d="M194.4,97.3h22.2v20.1c0,1-0.3,1.7-0.8,2.1c-0.5,0.4-1.3,0.7-2.3,0.7h-3.6l-0.5-2.6l3.6,0.1c0.7,0,1-0.4,1-1.1V99.6h-19.5
			V97.3z M194.7,102.1h15.2v2.3h-15.2V102.1z M195.9,107h13v8.5h-13V107z M206.3,113.2v-4h-7.8v4H206.3z"/>
	</g>
</g>
</svg>
