<?xml version="1.0" encoding="utf-8"?>
<!-- Generator: Adobe Illustrator 21.1.0, SVG Export Plug-In . SVG Version: 6.00 Build 0)  -->
<svg version="1.1" id="圖層_1" xmlns="http://www.w3.org/2000/svg" xmlns:xlink="http://www.w3.org/1999/xlink" x="0px" y="0px"
	 viewBox="0 0 217.4 159.6" style="enable-background:new 0 0 217.4 159.6;" xml:space="preserve">
<style type="text/css">
	.st0{fill-rule:evenodd;clip-rule:evenodd;fill:url(#SVGID_1_);}
	.st1{filter:url(#Adobe_OpacityMaskFilter);}
	.st2{filter:url(#Adobe_OpacityMaskFilter_1_);}
	.st3{mask:url(#SVGID_2_);fill-rule:evenodd;clip-rule:evenodd;fill:url(#SVGID_3_);}
	.st4{fill-rule:evenodd;clip-rule:evenodd;fill:url(#SVGID_4_);}
	.st5{fill-rule:evenodd;clip-rule:evenodd;fill:url(#SVGID_5_);}
	.st6{fill-rule:evenodd;clip-rule:evenodd;fill:url(#SVGID_9_);}
	.st7{fill:#231815;}
	.st8{fill-rule:evenodd;clip-rule:evenodd;fill:#FFFFFF;}
	.st9{fill-rule:evenodd;clip-rule:evenodd;fill:#9E0351;}
	.st10{fill-rule:evenodd;clip-rule:evenodd;fill:#F8F4A8;}
</style>
<g>
	<g>
		<g>
			<g>
				<linearGradient id="SVGID_1_" gradientUnits="userSpaceOnUse" x1="59.0339" y1="103.2164" x2="155.2947" y2="22.444">
					<stop  offset="3.958120e-03" style="stop-color:#C79F62"/>
					<stop  offset="0.152" style="stop-color:#F4E0BE"/>
					<stop  offset="0.1636" style="stop-color:#F8E5C5"/>
					<stop  offset="0.309" style="stop-color:#DEBD91"/>
					<stop  offset="0.5697" style="stop-color:#DED2B3"/>
					<stop  offset="0.7809" style="stop-color:#9E7450"/>
					<stop  offset="1" style="stop-color:#C8BB9B"/>
				</linearGradient>
				<path class="st0" d="M170,62.8c0,34.7-28.1,62.8-62.8,62.8c-34.7,0-62.8-28.1-62.8-62.8C44.3,28.1,72.5,0,107.2,0
					C141.9,0,170,28.1,170,62.8z"/>
				<defs>
					<filter id="Adobe_OpacityMaskFilter" filterUnits="userSpaceOnUse" x="47.5" y="2.6" width="119.8" height="120.2">
						<feFlood  style="flood-color:white;flood-opacity:1" result="back"/>
						<feBlend  in="SourceGraphic" in2="back" mode="normal"/>
					</filter>
				</defs>
				<mask maskUnits="userSpaceOnUse" x="47.5" y="2.6" width="119.8" height="120.2" id="SVGID_2_">
					<g class="st1">
						<defs>
							<filter id="Adobe_OpacityMaskFilter_1_" filterUnits="userSpaceOnUse" x="47.5" y="2.6" width="119.8" height="120.2">
								<feFlood  style="flood-color:white;flood-opacity:1" result="back"/>
								<feBlend  in="SourceGraphic" in2="back" mode="normal"/>
							</filter>
						</defs>
						<mask maskUnits="userSpaceOnUse" x="47.5" y="2.6" width="119.8" height="120.2" id="SVGID_2_">
							<g class="st2">
							</g>
						</mask>
						<linearGradient id="SVGID_3_" gradientUnits="userSpaceOnUse" x1="61.4133" y1="24.1505" x2="153.3004" y2="101.2529">
							<stop  offset="3.958120e-03" style="stop-color:#FFFFFF"/>
							<stop  offset="0.1636" style="stop-color:#FFFFFF"/>
							<stop  offset="0.309" style="stop-color:#FFFFFF"/>
							<stop  offset="0.5697" style="stop-color:#FFFFFF"/>
							<stop  offset="0.7809" style="stop-color:#8A8A8A"/>
							<stop  offset="1" style="stop-color:#FFFFFF"/>
						</linearGradient>
						<ellipse class="st3" cx="107.4" cy="62.7" rx="59.9" ry="60.1"/>
					</g>
				</mask>
				<linearGradient id="SVGID_4_" gradientUnits="userSpaceOnUse" x1="61.4133" y1="24.1505" x2="153.3004" y2="101.2529">
					<stop  offset="3.958120e-03" style="stop-color:#D1A262"/>
					<stop  offset="0.1505" style="stop-color:#F8E1BE"/>
					<stop  offset="0.1636" style="stop-color:#FCE7C6"/>
					<stop  offset="0.3152" style="stop-color:#E1C191"/>
					<stop  offset="0.5697" style="stop-color:#FFE9B1"/>
					<stop  offset="0.7809" style="stop-color:#D3AF69"/>
					<stop  offset="1" style="stop-color:#C8BB9B"/>
				</linearGradient>
				<ellipse class="st4" cx="107.4" cy="62.7" rx="59.9" ry="60.1"/>
				
					<radialGradient id="SVGID_5_" cx="107.3532" cy="62.9832" r="37.1244" gradientTransform="matrix(1 0 0 1.0031 0 -0.4743)" gradientUnits="userSpaceOnUse">
					<stop  offset="0" style="stop-color:#FFFFFF"/>
					<stop  offset="1" style="stop-color:#B70D5E"/>
				</radialGradient>
				<path class="st5" d="M144.5,62.7c0,20.6-16.6,37.2-37.1,37.2c-20.5,0-37.1-16.7-37.1-37.2c0-20.6,16.6-37.2,37.1-37.2
					C127.9,25.5,144.5,42.1,144.5,62.7z"/>
				<g>
					<defs>
						<path id="SVGID_6_" d="M142.9,66.4l0.1-1.9l0.1-1.9l0-1.9l-0.2-1.9l-0.2-1.8l-0.3-1.8l-0.4-1.8l-0.5-1.7l-0.6-1.7l-0.7-1.6
							l-0.7-1.6l-0.8-1.5l-0.9-1.5l-0.9-1.5l-1-1.4l-1.1-1.4l-1.1-1.3l-1.2-1.2l-1.3-1.2l-1.3-1.1l-1.3-1l-1.4-1l-1.4-1l-1.5-0.8
							l-1.5-0.8l-1.6-0.7l-1.6-0.6l-1.6-0.6l-1.7-0.5l-1.7-0.4l-1.7-0.3L111,27l-1.8-0.1l-1.8,0l-1.8,0l-1.8,0.2l-1.8,0.2l-1.7,0.3
							l-1.7,0.4l-1.7,0.5L95.2,29l-1.6,0.6L92,30.3l-1.5,0.7L89,31.9l-1.4,0.9l-1.4,1l-1.3,1L83.5,36l-1.2,1.1L81,38.4L80,39.6
							l-0.1,0l-0.3,0.1l-0.2,0.2l-0.2,0.4l0,0.4l-0.3,0.4l-1,1.4l-1,1.5L76,45.4l-0.8,1.6l-0.7,1.6l-0.6,1.6l-0.6,1.7l-0.5,1.7
							l-0.4,1.8L72,57.2L71.8,59l-0.2,1.8l-0.1,1.9l0.1,1.9l0.1,1.9l0.2,1.8l0.4,1.8l0.4,1.8l0.5,1.7l0.6,1.7l0.6,1.6l0.7,1.6
							l0.8,1.5l0.9,1.5l0.9,1.5l1,1.4l1.1,1.3l1.1,1.3l1.2,1.3l1.2,1.2l1.3,1.1l1.3,1l1.4,1l1.4,0.9l1.5,0.9l1.5,0.8l1.6,0.7
							l1.6,0.7l1.6,0.5l1.7,0.5l1.7,0.4l1.7,0.3l1.7,0.3l1.8,0.1l1.8,0l1.8,0l1.8-0.1l1.7-0.2l1.7-0.4l1.7-0.4l1.7-0.5l1.6-0.6
							l1.6-0.6l1.6-0.7l1.5-0.8l1.5-0.9l1.5-0.9l1.4-1l1.4-1.1l1.3-1.1l1.3-1.2l1.2-1.2l1.2-1.3l1.1-1.4l1-1.4l0.9-1.4l0.9-1.5
							l0.8-1.6l0.7-1.6l0.6-1.6l0.6-1.7l0.5-1.7l0.4-1.8l0.3-1.8L142.9,66.4z M135.9,44.3l0.9,1.3l0.8,1.4l0.7,1.4L139,50l0.6,1.4
							l0.5,1.5l0.5,1.5l0.4,1.6l0.3,1.7l0.2,1.3h-11.4l-0.1-1.3l-0.2-1.7l-0.3-1.7l-0.4-1.7l-0.4-1.6l-0.5-1.6l-0.6-1.5l-0.2-0.5
							l0.2-0.1l0.8-0.3l0.8-0.4l0.7-0.4l0.7-0.4l0.6-0.4l0.6-0.4l0.5-0.4l0.5-0.4l0.5-0.4l0.4-0.5l0.4-0.5l0.3-0.5l0-0.1l0.6,0.8
							L135.9,44.3z M128.8,63l0,1.6l-0.1,1.6l-0.1,1.6l-0.2,1.6l-0.3,1.5l-0.3,1.5l-0.4,1.5l-0.4,1.4l-0.5,1.4l-0.1,0.4l-0.5-0.2
							l-1-0.2l-1-0.3l-1-0.3l-1-0.3l-1.1-0.2l-1.1-0.3l-1.2-0.2l-1.2-0.2l-0.5-0.1l0.1-0.4l0.2-1.5l0.1-1.6l0.1-1.5l0.1-1.7l0.1-1.7
							l0-1.7l0-1.7l0-1.5h11.4L128.8,63z M88.4,76.7l-0.5-1.4l-0.4-1.5l-0.3-1.5l-0.3-1.4l-0.3-1.6l-0.2-1.5l-0.2-1.6l-0.1-1.6
							L86,63l0-1.5l11.4,0l0,1.5l0,1.7l0,1.7l0.1,1.7l0.1,1.6l0.1,1.6l0.1,1.5l0.2,1.5l0,0.3l-0.3,0l-1.3,0.2l-1.2,0.2l-1.2,0.2
							L93,75.6l-1.1,0.3l-1.1,0.3l-1,0.3l-1,0.3l-0.3,0.1L88.4,76.7z M126.3,49.2l0.5,1.4l0.4,1.5l0.4,1.4l0.4,1.6l0.3,1.5l0.2,1.5
							l0.1,0.9h-11.3l-0.1-1.1l-0.1-1.6l-0.1-1.6l-0.2-1.6l-0.2-1.5l-0.2-1.5l0.7-0.1l1.2-0.2l1.2-0.2l1.1-0.3l1.1-0.2l1-0.3l1-0.3
							l1-0.3l0.9-0.3h0L126.3,49.2z M116,63l0,1.6l0,1.7l-0.1,1.7l-0.1,1.6l-0.1,1.5l-0.1,1.6l-0.2,1.5l0,0.3l-0.5-0.1l-1.2-0.1
							l-1.3-0.1l-1.3-0.1l-1.3,0l-1.3-0.1l-0.2,0l0-12.5h7.9L116,63z M115.3,51.6l0.2,1.6l0.2,1.6l0.1,1.6l0.1,1.6l0,1.1l-7.8,0
							v-8.3l0.2,0l1.3-0.1l1.3,0l1.3-0.1l1.3-0.1l1.2-0.1l0.3-0.1L115.3,51.6z M114.7,48l-1.2,0.1l-1.2,0.1l-1.3,0.1l-1.3,0l-1.4,0
							l-0.2,0l0-18l0.2,0l0.2,0l0.3,0.3l0.4,0.4l0.3,0.5l0.4,0.5l0.4,0.7l0.4,0.8l0.4,0.8l0.4,0.9l0.4,0.9l0.4,1l0.4,1.1l0.4,1.1
							l0.3,1.2l0.3,1.2l0.3,1.3l0.3,1.4l0.3,1.4l0.2,1.4L114.7,48L114.7,48z M103.8,34.4l0.4-0.8l0.4-0.8l0.4-0.6l0.4-0.6l0.3-0.5
							l0.4-0.4l0.3-0.3l0.3,0l0.1,0v18.1l-1,0l-1.3,0l-1.3-0.1l-1.3-0.1l-1.3-0.1l-0.3,0l0.1-0.8l0.3-1.4l0.2-1.4l0.3-1.3l0.3-1.3
							l0.3-1.2l0.3-1.2l0.3-1.1l0.4-1.1l0.3-1l0.4-1L103.8,34.4z M99,58l0.1-1.6l0.2-1.6l0.1-1.6l0.2-1.5l0.2-1.3l0.6,0.1l1.3,0.1
							l1.3,0.1l1.3,0.1l1.3,0l1.1,0l0,8.3l-7.7,0L99,58z M106.7,61.5l0,12.5l-1.1,0l-1.4,0.1l-1.3,0.1l-1.3,0.1l-1.3,0.1l-0.8,0.1
							l0-0.2l-0.2-1.5l-0.1-1.6L99,69.6L99,68l-0.1-1.6l0-1.7l0-1.7l0-1.5H106.7z M100.4,76.7l1.3-0.2l1.3-0.1l1.3,0l1.3,0l1.1,0
							l0,19.2l-0.2,0l-0.1,0l-0.2-0.1l-0.4-0.4l-0.4-0.5l-0.4-0.6l-0.4-0.6l-0.4-0.7l-0.4-0.8l-0.4-0.8l-0.4-0.9l-0.4-0.9l-0.3-1
							l-0.3-1l-0.4-1.2l-0.3-1.1l-0.3-1.2l-0.3-1.3l-0.3-1.3l-0.3-1.3l-0.3-1.4l-0.2-1.4l-0.1-0.5L100.4,76.7z M111,92l-0.4,0.7
							l-0.4,0.7l-0.4,0.6l-0.4,0.6L109,95l-0.4,0.4l-0.1,0.1l-0.1,0l-0.3,0l0-19.3h0.2l1.3,0.1l1.3,0.1l1.3,0.1l1.3,0.1l1.2,0.2
							l0.3,0l0,0.3l-0.2,1.4l-0.2,1.4l-0.3,1.3l-0.3,1.3l-0.3,1.2l-0.3,1.2l-0.3,1.2l-0.3,1.1l-0.4,1.1l-0.3,1l-0.4,0.9l-0.4,0.8
							L111,92z M124.6,45.9l-1,0.3l-1,0.3l-1,0.3l-1.1,0.2l-1.1,0.2l-1.1,0.2l-1.2,0.2l-0.9,0.1l-0.1-0.8l-0.3-1.5l-0.3-1.3
							l-0.3-1.4l-0.3-1.3l-0.3-1.2l-0.4-1.2l-0.4-1.1l-0.4-1.1l-0.4-1l-0.4-1l-0.4-0.9L112,33l-0.4-0.8l-0.4-0.7l-0.3-0.5l0,0
							l0.9,0.4l0.9,0.5l0.9,0.6l0.9,0.6l0.9,0.7l0.9,0.8l0.9,0.8l0.9,0.9L119,37l0.9,1l0.8,1.1l0.8,1l0.8,1.2l0.8,1.2l0.7,1.2
							l0.7,1.3l0.4,0.8L124.6,45.9z M102.1,31.8l0.9-0.5l0.9-0.3l0,0l-0.3,0.5l-0.4,0.7l-0.4,0.8l-0.4,0.8l-0.4,0.9l-0.4,1l-0.4,1
							l-0.4,1.1l-0.3,1.1l-0.3,1.2l-0.3,1.3l-0.3,1.3l-0.3,1.3L99,45.6L98.8,47l-0.2,0.9l-0.7-0.1l-1.2-0.2l-1.2-0.2l-1.2-0.2
							L93.2,47l-1.1-0.3l-1-0.3l-1-0.3l-0.1,0l0.5-0.9l0.7-1.3l0.7-1.3l0.7-1.2l0.8-1.2l0.8-1.1l0.8-1l0.8-1l0.9-1l0.9-0.9l0.9-0.8
							l0.9-0.8l0.9-0.7l0.9-0.6L102.1,31.8z M86.3,58.3l0.2-1.6l0.3-1.5l0.4-1.5l0.4-1.5l0.5-1.5l0.5-1.4l0.4-1.1l0.8,0.2l1,0.3
							l1.1,0.3l1.1,0.3l1.2,0.2l1.1,0.3l1.2,0.2l1.2,0.1l0.5,0.1l-0.2,1.3l-0.1,1.6l-0.2,1.6l-0.1,1.6l-0.1,1.6l0,1.1H86.2
							L86.3,58.3z M90,78.8l1-0.3l1-0.3l1.1-0.3l1.1-0.2l1.2-0.2l1.2-0.2l1.2-0.2l0.5-0.1l0.1,0.4l0.2,1.4l0.2,1.4l0.3,1.4l0.3,1.4
							l0.3,1.2l0.3,1.2l0.3,1.2l0.3,1.2l0.3,1.1l0.3,1l0.4,1l0.4,1l0.4,0.8l0.4,0.7l0.4,0.8l0.4,0.6l0.1,0.1l-0.4-0.2l-1-0.4
							l-0.9-0.5l-1-0.5l-1-0.7L98.8,92l-0.9-0.7l-0.9-0.8L96,89.6l-0.8-0.9l-0.8-1l-0.8-1l-0.8-1.1L92,84.4l-0.7-1.2L90.7,82
							L90,80.7l-0.6-1.3L89.3,79L90,78.8z M114.2,93.2l-0.9,0.6l-1,0.5l-1,0.5l-0.4,0.1l0.1-0.2l0.4-0.7l0.4-0.7l0.4-0.8l0.4-0.9
							l0.4-0.9l0.4-1l0.4-1l0.4-1l0.3-1.2l0.3-1.2l0.3-1.2l0.3-1.3l0.3-1.4l0.3-1.3l0.3-1.4l0.2-1.4l0-0.4l0.7,0.1l1.2,0.2l1.1,0.2
							l1.1,0.2l1.1,0.3l1,0.2l1,0.3l0.9,0.3l0.9,0.3l0,0l-0.1,0.2l-0.6,1.3l-0.6,1.3l-0.6,1.2l-0.7,1.2l-0.7,1.1l-0.8,1.1l-0.8,1
							l-0.8,1.1l-0.9,0.9l-0.9,0.9l-0.9,0.8l-0.9,0.8l-0.9,0.7L114.2,93.2z M114.3,30l1.7,0.4l1.7,0.4l1.6,0.5l1.6,0.6l1.5,0.7
							l1.5,0.8l1.5,0.8l1.4,0.8L128,36l1.3,1l1.3,1.1l1.2,1.2l1.1,1.2l0.3,0.4l-0.1,0.3l-0.2,0.4l-0.3,0.4l-0.3,0.3l-0.5,0.4
							l-0.5,0.4l-0.6,0.4l-0.6,0.4l-0.6,0.4l-0.7,0.3l-0.7,0.4l-0.8,0.4l-0.8,0.3l-0.2-0.4l-0.7-1.4l-0.7-1.3l-0.8-1.3l-0.8-1.3
							l-0.9-1.2l-0.8-1.2l-0.9-1.1l-0.9-1.1l-0.9-1l-1-0.9l-0.9-0.9l-0.9-0.8l-1-0.7l-1-0.7l-0.4-0.2L114.3,30z M81.9,40.5l1.1-1.1
							l1.2-1.1l1.2-1.1l1.3-1l1.4-0.9l1.4-0.9l1.4-0.8l1.5-0.7l1.5-0.7l1.6-0.6l1.6-0.5l1.6-0.5l1.7-0.4l0.8-0.1l-0.5,0.3l-0.9,0.6
							l-1,0.7l-0.9,0.8l-1,0.9L95.9,34L95,35l-0.9,1l-0.9,1.1l-0.8,1.2l-0.8,1.2l-0.8,1.3L90,42.2l-0.7,1.4L88.6,45l-0.2,0.6
							l-0.2-0.1l-0.9-0.3l-0.8-0.4l-0.8-0.4l-0.8-0.3l-0.7-0.4l-0.6-0.3L82.8,43l-0.5-0.4l-0.5-0.3L81.4,42l-0.3-0.4L81,41.5
							L81.9,40.5z M73.7,56.2l0.4-1.6l0.5-1.6l0.5-1.5l0.6-1.5l0.7-1.5l0.7-1.4l0.8-1.4l0.9-1.4l0.9-1.3l0.1-0.1l0.2,0.3l0.4,0.5
							l0.4,0.4l0.5,0.4l0.5,0.4l0.6,0.4l0.6,0.4l0.7,0.4l0.7,0.3l0.8,0.4l0.8,0.4l0.9,0.3l0.5,0.2l-0.1,0.3l-0.5,1.6l-0.5,1.6
							l-0.4,1.6l-0.4,1.6l-0.3,1.7l-0.3,1.7l-0.1,1.3l-11.5,0l0.2-1.3L73.7,56.2z M78.8,81.1l-0.9-1.4l-0.8-1.4L76.4,77l-0.7-1.5
							L75.1,74l-0.5-1.5l-0.4-1.5l-0.4-1.6l-0.3-1.7l-0.2-1.6l-0.1-1.6l0-1.7l0-1.2h11.5l0,1.5l0,1.8l0.1,1.8l0.2,1.7l0.2,1.7
							l0.3,1.6l0.4,1.6l0.4,1.6l0.5,1.6l0.3,1l-0.1,0L86,77.8l-0.8,0.4l-0.8,0.3l-0.7,0.4L83,79.3l-0.6,0.4L81.8,80l-0.5,0.5
							l-0.5,0.4l-0.4,0.4L80,81.7l-0.3,0.5l0,0.1L78.8,81.1z M98.7,95.1l-1.6-0.5l-1.6-0.5l-1.6-0.6l-1.5-0.7L90.9,92l-1.4-0.9
							l-1.4-0.9l-1.3-1l-1.3-1l-1.3-1.1L83,86.1L81.8,85l-1.1-1.2l0,0l0.1-0.1l0.3-0.3l0.3-0.3l0.4-0.4l0.4-0.3l0.6-0.4l0.6-0.4
							l0.6-0.4l0.7-0.4l0.7-0.3l0.8-0.4l0.8-0.3l0.5-0.2l0.6,1.4l0.6,1.3l0.7,1.4l0.7,1.3l0.8,1.3l0.8,1.2l0.8,1.2l0.8,1l0.9,1
							l0.9,1l1,0.9l1,0.9l0.9,0.8l1,0.7l0.6,0.4L98.7,95.1z M132.9,84.9l-1.1,1.2l-1.2,1.1l-1.3,1.1l-1.3,1l-1.3,0.9l-1.4,0.9
							l-1.4,0.8l-1.5,0.7l-1.5,0.7l-1.6,0.6l-1.6,0.6L116,95l-0.8,0.2l0.5-0.3l1-0.8l1-0.7l1-0.9l0.9-0.9l0.9-1l0.9-1l0.8-1.1
							l0.8-1.2l0.8-1.2l0.8-1.3l0.7-1.3l0.7-1.4l0.6-1.4l0.5-1.1l0.2,0.1l0.8,0.4l0.7,0.3l0.7,0.4l0.6,0.3l0.6,0.3l0.5,0.4l0.5,0.4
							l0.4,0.4l0.4,0.4l0.3,0.3l0.2,0.3l0.2,0.3l0.1,0.2l0.1,0.1L132.9,84.9z M141,69.3l-0.4,1.5l-0.4,1.6l-0.5,1.5l-0.6,1.5
							l-0.7,1.4l-0.8,1.5l-0.8,1.4l-0.9,1.3l-1,1.4l-0.4,0.6l-0.2-0.5l-0.3-0.5l-0.4-0.5l-0.4-0.4l-0.5-0.5l-0.5-0.4l-0.5-0.4
							l-0.6-0.4l-0.6-0.4l-0.7-0.4l-0.7-0.4l-0.8-0.3l-0.5-0.2l0.4-1.2l0.4-1.6l0.4-1.6l0.4-1.7l0.3-1.6l0.2-1.7l0.2-1.7l0.1-1.7
							l0.1-1.8l0-1.5h11.4l0,1.1l0,1.7l-0.2,1.6l-0.2,1.6L141,69.3z"/>
					</defs>
					
						<radialGradient id="SVGID_7_" cx="107.3027" cy="63.4941" r="35.7004" gradientTransform="matrix(1.0019 0 0 1.005 -0.15 -1.1051)" gradientUnits="userSpaceOnUse">
						<stop  offset="0" style="stop-color:#FFFFFF"/>
						<stop  offset="1" style="stop-color:#9E0351"/>
					</radialGradient>
					<use xlink:href="#SVGID_6_"  style="overflow:visible;fill-rule:evenodd;clip-rule:evenodd;fill:url(#SVGID_7_);"/>
					<clipPath id="SVGID_8_">
						<use xlink:href="#SVGID_6_"  style="overflow:visible;"/>
					</clipPath>
				</g>
				<linearGradient id="SVGID_9_" gradientUnits="userSpaceOnUse" x1="78.3556" y1="60.7776" x2="136.3562" y2="60.7776">
					<stop  offset="3.958120e-03" style="stop-color:#C79F62"/>
					<stop  offset="0.152" style="stop-color:#F4E0BE"/>
					<stop  offset="0.1636" style="stop-color:#F8E5C5"/>
					<stop  offset="0.309" style="stop-color:#DEBD91"/>
					<stop  offset="0.5697" style="stop-color:#DED2B3"/>
					<stop  offset="0.7809" style="stop-color:#9E7450"/>
					<stop  offset="1" style="stop-color:#C8BB9B"/>
				</linearGradient>
				<polygon class="st6" points="107.4,33.1 116.3,51.3 136.4,54.2 121.9,68.4 125.3,88.4 107.4,79 89.4,88.4 92.9,68.4 78.4,54.2 
					98.4,51.3 				"/>
				<g>
					<g>
						<path class="st7" d="M63.7,62.4l-1-0.1l0.1-1.4l-8.2-0.7l-0.1,1.4l-1-0.1l0.4-4.4l1,0.1l-0.1,1.4l8.1,0.7l0.1-1.4l1,0.1
							L63.7,62.4z"/>
						<path class="st7" d="M54,72.6l-0.1-1.6l4.2-0.3c1.5-0.1,2.3-1,2.1-2.5c-0.1-0.8-0.3-1.5-0.8-2c-0.5-0.5-1.1-0.7-1.7-0.7
							l-4.2,0.3l-0.1-1.6l7.3-0.6l0.1,1.6l-1.2,0.1l0,0c1,0.7,1.5,1.8,1.6,3.2c0.1,1.1-0.1,2-0.6,2.6c-0.5,0.6-1.2,1-2.2,1.1
							L54,72.6z"/>
						<path class="st7" d="M56.1,80.6c-0.2-0.3-0.4-0.8-0.6-1.4c-0.5-1.7,0-2.7,1.4-3.1l4.2-1.1l-0.5-1.7l1-0.3l0.4,1.7l1.7-0.5
							l0.8,1.5l-2.1,0.6l0.7,2.5l-1,0.3l-0.7-2.5l-4,1.1c-0.5,0.1-0.8,0.3-0.9,0.6c-0.1,0.3-0.1,0.7,0,1.2c0.1,0.4,0.3,0.7,0.5,1
							L56.1,80.6z"/>
						<path class="st7" d="M63.3,89.1l-3-6.5c-0.7,0.4-1.2,0.9-1.3,1.6c-0.2,0.7,0,1.5,0.4,2.4c0.5,1,1.2,1.9,2,2.5l-1,0.5
							C59.7,89,59,88,58.3,86.7c-0.6-1.3-0.8-2.5-0.5-3.5c0.3-1,0.9-1.8,2-2.3c1-0.5,2.1-0.5,3.1,0.1c1,0.5,1.8,1.4,2.4,2.6
							c0.6,1.2,0.7,2.3,0.4,3.2c-0.3,0.9-0.9,1.6-1.9,2.1L63.3,89.1z M63.5,87.1c0.6-0.3,1-0.7,1.2-1.3c0.2-0.6,0.1-1.2-0.3-1.9
							c-0.3-0.7-0.8-1.2-1.3-1.5c-0.6-0.3-1.2-0.4-1.8-0.3L63.5,87.1z"/>
						<path class="st7" d="M69.9,93.8c0-0.3-0.2-0.7-0.5-1.1c-0.4-0.6-0.9-0.9-1.6-1c-0.7-0.1-1.3,0.1-2,0.5l-3.1,2.1l-0.9-1.3
							l6-4.1l0.9,1.3L67.6,91l0,0c0.6-0.1,1.1,0,1.6,0.2c0.5,0.2,0.9,0.6,1.3,1.1c0.2,0.3,0.4,0.6,0.5,0.9L69.9,93.8z"/>
						<path class="st7" d="M72.3,105.1l-1.1-1.1l3-2.9c1.1-1.1,1.1-2.2,0-3.3c-0.6-0.6-1.2-0.9-1.9-1c-0.7-0.1-1.3,0.1-1.7,0.6
							l-3,2.9l-1.1-1.1l5.2-5.2l1.1,1.1L71.8,96l0,0c1.2-0.1,2.3,0.3,3.3,1.4c0.8,0.8,1.2,1.6,1.2,2.3c0,0.8-0.3,1.5-1,2.2
							L72.3,105.1z"/>
						<path class="st7" d="M81.4,111.3l-1.4-0.9l0.6-1l0,0c-1.1,0.4-2.2,0.2-3.3-0.6c-0.8-0.6-1.4-1.1-1.7-1.8
							c-0.3-0.6-0.2-1.2,0.1-1.7c0.7-1.1,2.1-1.2,4.1-0.2l2.7,1.4c0.7-1,0.4-1.9-0.7-2.7c-1-0.7-2.1-1-3.3-1l0.7-1
							c1.1,0.2,2.2,0.6,3.3,1.3c2,1.3,2.5,2.7,1.5,4.2L81.4,111.3z M82,107.4l-2.2-1.1c-0.7-0.3-1.2-0.5-1.6-0.6
							c-0.4,0-0.8,0.1-1,0.5c-0.2,0.3-0.2,0.6,0,1c0.2,0.4,0.5,0.7,1,1c0.7,0.4,1.3,0.6,2,0.6c0.7-0.1,1.2-0.4,1.5-0.9L82,107.4z"/>
						<path class="st7" d="M89,114.7c-0.4,0-0.9-0.1-1.5-0.4c-1.6-0.7-2.2-1.7-1.6-3l1.7-4l-1.6-0.7l0.4-0.9l1.6,0.7l0.7-1.6
							l1.6,0.3l-0.8,2l2.3,1l-0.4,0.9l-2.3-1l-1.6,3.8c-0.2,0.5-0.2,0.8-0.1,1.1c0.1,0.3,0.4,0.5,0.9,0.7c0.4,0.2,0.7,0.2,1.1,0.2
							L89,114.7z"/>
						<path class="st7" d="M92.8,115.9l-1.6-0.5l2.1-7l1.5,0.5L92.8,115.9z M94.6,106.9c-0.3-0.1-0.5-0.2-0.6-0.4
							c-0.2-0.2-0.2-0.4-0.1-0.6c0.1-0.2,0.2-0.4,0.4-0.4c0.2-0.1,0.5-0.1,0.8,0c0.3,0.1,0.5,0.2,0.7,0.4c0.2,0.2,0.2,0.4,0.1,0.6
							c-0.1,0.2-0.2,0.3-0.5,0.4C95.2,107,94.9,107,94.6,106.9z"/>
						<path class="st7" d="M100.6,117.6c-1.5-0.2-2.6-0.7-3.4-1.5c-0.8-0.8-1.1-1.7-1-2.9c0.2-1.2,0.7-2.1,1.7-2.7
							c1-0.6,2.3-0.8,3.9-0.6c1.5,0.2,2.6,0.7,3.4,1.4c0.8,0.8,1.1,1.8,0.9,2.9c-0.1,1.2-0.7,2-1.7,2.6
							C103.4,117.6,102.1,117.8,100.6,117.6z M101.5,111c-1-0.1-1.9,0-2.5,0.5c-0.7,0.4-1,1.1-1.2,2c-0.1,0.9,0.1,1.6,0.7,2.1
							c0.5,0.6,1.3,0.9,2.3,1c1,0.1,1.9,0,2.5-0.4c0.6-0.4,1-1.1,1.1-2c0.1-0.9-0.1-1.6-0.6-2.2C103.3,111.5,102.6,111.2,101.5,111z
							"/>
						<path class="st7" d="M117.4,117.1l-1.6,0.2l-0.4-4.1c-0.2-1.5-1-2.2-2.6-2.1c-0.8,0.1-1.4,0.4-1.9,0.9
							c-0.5,0.5-0.7,1.1-0.6,1.7l0.4,4.1l-1.6,0.2l-0.8-7.3l1.6-0.2l0.1,1.2l0,0c0.7-1,1.7-1.6,3.1-1.7c1.1-0.1,2,0,2.6,0.5
							c0.6,0.4,1,1.2,1.1,2.1L117.4,117.1z"/>
						<path class="st7" d="M128.1,113.9l-1.5,0.5l-0.4-1.1l0,0c-0.4,1.1-1.2,1.8-2.5,2.2c-1,0.3-1.8,0.4-2.4,0.2
							c-0.7-0.2-1.1-0.6-1.3-1.2c-0.4-1.3,0.4-2.4,2.4-3.3l2.8-1.3c-0.4-1.2-1.3-1.5-2.6-1.1c-1.2,0.4-2.1,1-2.8,1.9l-0.4-1.1
							c0.8-0.7,1.8-1.3,3-1.7c2.2-0.8,3.7-0.3,4.2,1.4L128.1,113.9z M125.4,110.9l-2.2,1c-0.7,0.3-1.2,0.6-1.5,0.9
							c-0.3,0.3-0.4,0.7-0.2,1.2c0.1,0.3,0.4,0.6,0.8,0.7c0.4,0.1,0.9,0.1,1.4-0.1c0.8-0.3,1.3-0.7,1.7-1.2c0.4-0.6,0.4-1.1,0.2-1.7
							L125.4,110.9z"/>
						<path class="st7" d="M132.6,111.6l-1.4,0.7l-4.9-9.6l1.4-0.7L132.6,111.6z"/>
						<path class="st7" d="M148.1,98.5c-0.6,1.4-1.6,2.7-2.8,3.9c-1.5,1.4-3,2.2-4.5,2.4c-1.6,0.2-2.9-0.3-3.9-1.4
							c-1.1-1.1-1.5-2.6-1.2-4.3c0.3-1.7,1.2-3.3,2.7-4.7c1.1-1.1,2.2-1.8,3.2-2.3l0.9,1c-1.2,0.4-2.3,1.2-3.5,2.2
							c-1.1,1.1-1.8,2.3-2,3.6c-0.2,1.3,0.2,2.4,1,3.3c0.9,0.9,1.9,1.3,3.1,1.2c1.2-0.1,2.4-0.7,3.5-1.9c0.8-0.8,1.4-1.5,1.7-2.3
							l-2-2.1l-2.2,2.1l-0.8-0.8l3.4-3.3L148.1,98.5z"/>
						<path class="st7" d="M148.7,88.1c-0.3,0.1-0.6,0.4-0.9,0.9c-0.4,0.6-0.5,1.2-0.4,1.8c0.1,0.7,0.5,1.2,1.2,1.7l3.1,2.1
							l-0.9,1.3l-6-4.1l0.9-1.3l1.2,0.8l0,0c-0.3-0.5-0.4-1-0.4-1.5c0-0.6,0.2-1.1,0.5-1.6c0.2-0.3,0.4-0.6,0.6-0.7L148.7,88.1z"/>
						<path class="st7" d="M156.7,85.9c-0.6,1.4-1.4,2.3-2.4,2.9c-1,0.5-2,0.6-3,0.1c-1.1-0.5-1.8-1.3-2.1-2.4
							c-0.3-1.1-0.1-2.4,0.6-3.9c0.6-1.4,1.4-2.3,2.3-2.8c1-0.5,2-0.5,3.1,0c1.1,0.5,1.7,1.3,2,2.4
							C157.5,83.3,157.3,84.6,156.7,85.9z M150.7,83.1c-0.4,1-0.5,1.8-0.3,2.6c0.2,0.8,0.7,1.3,1.6,1.7c0.8,0.3,1.5,0.3,2.2,0
							c0.7-0.4,1.3-1,1.7-1.9c0.4-1,0.5-1.8,0.3-2.5c-0.2-0.7-0.7-1.3-1.6-1.6c-0.8-0.4-1.6-0.4-2.3-0.1
							C151.6,81.5,151.1,82.2,150.7,83.1z"/>
						<path class="st7" d="M161,69.8l-0.3,1.6l-1.1-0.2l0,0c0.7,0.8,1,1.9,0.7,3.3c-0.4,2.4-1.7,3.4-3.7,3l-4.3-0.8l0.3-1.6l4.1,0.8
							c1.5,0.3,2.4-0.4,2.7-2c0.1-0.8,0.1-1.5-0.3-2c-0.3-0.6-0.8-0.9-1.5-1.1l-4.1-0.8l0.3-1.6L161,69.8z"/>
						<path class="st7" d="M160.2,64L160.2,64l4.4-0.2l0.1,1.6L154,66l-0.1-1.6l1.3-0.1v0c-1-0.7-1.5-1.9-1.6-3.4
							c-0.1-1.3,0.2-2.3,0.8-3.1c0.6-0.8,1.5-1.2,2.6-1.2c1.2-0.1,2.2,0.3,3,1.1c0.8,0.8,1.2,1.9,1.3,3.3
							C161.4,62.3,161,63.3,160.2,64z M157.3,64.2l1,0c0.6,0,1.1-0.3,1.5-0.9c0.4-0.6,0.6-1.3,0.5-2.1c0-1-0.4-1.7-0.9-2.3
							c-0.6-0.5-1.3-0.8-2.3-0.7c-0.8,0-1.4,0.3-1.9,0.9c-0.4,0.5-0.6,1.3-0.6,2.1c0,0.9,0.3,1.7,0.8,2.2
							C156,64,156.6,64.2,157.3,64.2z"/>
					</g>
					<g>
						<path class="st7" d="M84.9,28.3l-2.1,1.9l-4.6-1.8l-6.8,6.2l1.2,4.8l-2.1,1.9l-4-17.6l2-1.8L84.9,28.3z M76.6,27.7l-6.9-2.8
							c-0.2-0.1-0.5-0.3-0.9-0.6l0,0c0.2,0.4,0.4,0.7,0.4,1l1.8,7.4L76.6,27.7z"/>
						<path class="st7" d="M85.9,27.7l-0.7-2.1c0.4,0.1,0.8,0.1,1.3,0.2c0.5,0,1,0,1.6-0.1c0.5-0.1,1.1-0.2,1.6-0.3
							c0.5-0.1,1-0.2,1.4-0.4c1.5-0.5,2.5-1.1,3.1-1.8c0.6-0.7,0.7-1.4,0.5-2.1c-0.1-0.4-0.4-0.7-0.7-0.9c-0.3-0.2-0.8-0.4-1.3-0.5
							c-0.5-0.1-1.1-0.1-1.7-0.2c-0.7,0-1.4,0-2.1,0c-0.8,0-1.5,0-2.2-0.1c-0.7-0.1-1.3-0.2-1.9-0.3c-0.6-0.2-1-0.4-1.4-0.7
							c-0.4-0.3-0.7-0.8-0.9-1.3c-0.2-0.7-0.2-1.4,0-2c0.2-0.7,0.6-1.3,1.2-1.8c0.5-0.6,1.2-1.1,2-1.5c0.8-0.5,1.6-0.9,2.5-1.2
							c2-0.7,3.5-1.1,4.5-1l0.7,2c-1.4-0.2-3,0.1-4.9,0.7c-0.5,0.2-1,0.4-1.5,0.7c-0.5,0.3-0.9,0.6-1.2,0.9
							c-0.3,0.3-0.6,0.7-0.7,1.1c-0.2,0.4-0.2,0.8,0,1.2c0.1,0.4,0.3,0.7,0.6,0.9c0.3,0.2,0.7,0.4,1.1,0.5c0.5,0.1,1,0.2,1.6,0.2
							c0.6,0,1.3,0,2.1,0c0.8,0,1.6,0,2.3,0.1c0.7,0.1,1.4,0.2,2,0.4c0.6,0.2,1.1,0.4,1.6,0.8c0.4,0.3,0.7,0.8,0.9,1.3
							c0.2,0.7,0.3,1.4,0,2.1c-0.2,0.7-0.6,1.3-1.1,1.8c-0.5,0.6-1.2,1.1-2.1,1.5c-0.8,0.5-1.7,0.9-2.7,1.2
							c-0.3,0.1-0.7,0.2-1.2,0.4c-0.5,0.1-1,0.3-1.5,0.4c-0.5,0.1-1,0.2-1.5,0.2C86.6,27.7,86.2,27.7,85.9,27.7z"/>
						<path class="st7" d="M114.4,9.5l-6.2-0.1L108,23.6l-2.5,0l0.2-14.3l-6.2-0.1l0-1.7l14.8,0.2L114.4,9.5z"/>
						<path class="st7" d="M129.9,29.4l-2.6-0.9l-0.7-5l-8.5-3.1l-3.4,3.5l-2.6-1l12.8-12.3l2.4,0.9L129.9,29.4z M126.3,21.6l-1-7.6
							c0-0.2,0-0.6,0-1.1l-0.1,0c-0.2,0.4-0.5,0.7-0.7,0.9l-5.3,5.3L126.3,21.6z"/>
						<path class="st7" d="M142.5,41.7l-2.2-2.1l0.3-5.8c0-0.5,0-1,0-1.4c0-0.4-0.1-0.8-0.2-1.2c-0.1-0.4-0.3-0.7-0.5-1
							c-0.2-0.3-0.5-0.6-0.8-1l-1.5-1.4l-4.4,5l-1.8-1.7l10.4-11.8l4.7,4.5c0.7,0.7,1.3,1.3,1.7,2c0.5,0.7,0.8,1.4,1,2
							c0.2,0.7,0.2,1.3,0.1,1.9c-0.1,0.6-0.4,1.2-0.9,1.7c-0.4,0.4-0.8,0.7-1.2,0.9c-0.5,0.2-1,0.3-1.5,0.2c-0.5,0-1.1-0.1-1.7-0.4
							c-0.6-0.2-1.2-0.5-1.8-0.9l0,0c0.2,0.3,0.3,0.7,0.4,1c0.1,0.3,0.2,0.6,0.2,0.9c0,0.3,0.1,0.7,0.1,1c0,0.4,0,0.8,0,1.2
							L142.5,41.7z M142.4,22.2l-3.8,4.3l2.5,2.4c0.5,0.4,0.9,0.8,1.4,1.1c0.5,0.3,1,0.4,1.4,0.5c0.5,0.1,0.9,0.1,1.3-0.1
							c0.4-0.1,0.8-0.4,1.1-0.7c0.6-0.6,0.7-1.4,0.5-2.2c-0.2-0.9-0.9-1.8-1.9-2.8L142.4,22.2z"/>
					</g>
					<polygon class="st8" points="61.7,41.6 63.1,44.3 66.2,44.7 64,46.8 64.5,49.8 61.7,48.4 58.9,49.8 59.5,46.8 57.2,44.7 
						60.3,44.3 					"/>
					<polygon class="st8" points="153.9,41.6 155.3,44.3 158.4,44.7 156.1,46.8 156.7,49.8 153.9,48.4 151.1,49.8 151.7,46.8 
						149.4,44.7 152.5,44.3 					"/>
				</g>
				<g>
					<path class="st9" d="M107.5,42.3c0,0-3.1,4.6-4.8,8.7c-1.8,4.1-4,11.3-5.1,16c-1.2,4.7-2.3,14-2.3,14l12.3-6.6l12.3,6.6
						c0,0-1-8.5-2.4-14c-1.4-5.5-3.3-11.5-5.1-16C110.6,46.5,107.5,42.3,107.5,42.3z"/>
					<path class="st10" d="M107.5,42.2c0.8,1.1,3.3,4.8,4.8,8.5c1.8,4.5,3.8,10.6,5.2,16.1c1.4,5.5,2.4,14.1,2.4,14.1l-12.3-6.6
						L107.5,42.2z"/>
				</g>
			</g>
		</g>
	</g>
	<g>
		<path d="M6.1,143.5l1,1.3c-0.6,0.4-1.2,0.8-1.7,1v3.1H8v-5.6h2v5.6h4c0,1,0,1.9,0.1,2.7c0.4,0.1,0.9,0.3,1.3,0.4
			c0.9-0.7,1.5-1.5,2-2.2l1.6,1c-0.4,0.5-1.1,1.1-2,1.9c0.9,0.4,1.7,0.7,2.4,1.2l-1,1.6l1.1,1.1c-0.6,1.1-1.1,1.8-1.6,2.1
			c-0.5,0.3-0.9,0.5-1.2,0.5c-0.8,0-1.5-0.3-2.1-0.8c-0.8-0.7-1.5-1.8-1.9-3.1c-0.4-1.1-0.6-2.6-0.6-4.5H9.9v8.5H8v-8.5H5.4
			c-0.1,1.6-0.4,2.9-0.8,4c-0.5,1.4-1.5,2.8-3,4.2L0,157.6c1.3-1.1,2.2-2.2,2.8-3.5c0.4-0.8,0.6-1.9,0.7-3.3H0.3V149h3.2v-2.3
			c-0.7,0.3-1.5,0.5-2.5,0.8l-1-1.7c1.3-0.3,2.5-0.6,3.5-0.9C4.6,144.4,5.4,144,6.1,143.5z M2.2,140.9h11.7c0,0.8,0,1.5,0,2.1
			c0.4,0.1,0.8,0.2,1.2,0.3c0.7-0.7,1.3-1.3,1.7-1.9l1.5,0.9c-0.3,0.4-0.8,1-1.5,1.6c0.7,0.3,1.4,0.5,2.1,0.8l-1.2,1.7
			c-1.2-0.6-2.4-1.1-3.6-1.5c0.1,0.4,0.1,0.7,0.2,1c0.2,0.6,0.4,1.1,0.8,1.6c0.3,0.3,0.5,0.4,0.8,0.4c0.6,0,1.4-0.5,2.4-1.6l1.4,1.4
			c-0.8,0.9-1.5,1.5-2,1.8c-0.6,0.3-1.1,0.5-1.5,0.5c-0.7,0-1.3-0.2-1.9-0.7c-0.8-0.6-1.3-1.5-1.7-2.6c-0.3-0.9-0.5-2.2-0.5-3.7H2.2
			V140.9z M18,155.5c-1.3-0.8-2.5-1.4-3.8-1.9c0.1,0.5,0.2,1,0.3,1.3c0.2,0.7,0.5,1.4,1,1.9c0.3,0.4,0.7,0.5,1,0.5
			C16.9,157.4,17.4,156.8,18,155.5z"/>
		<path d="M22.2,143.9h2.4v-3.8h2v3.8h2.2v1.8h-2.2v4c0.6-0.3,1.2-0.7,1.9-1.2v2c-0.6,0.4-1.2,0.8-1.9,1.2v5.6
			c0,0.8-0.2,1.3-0.5,1.6c-0.3,0.3-0.9,0.5-1.7,0.5h-1.4l-0.4-2.1c0.5,0.1,0.9,0.2,1.2,0.2c0.5,0,0.8-0.2,0.8-0.5v-4.3
			c-0.7,0.3-1.4,0.6-2.1,0.8l-0.3-2c0.8-0.1,1.6-0.4,2.4-0.7v-5h-2.4V143.9z M28.7,148.1h12.6v1.7h-8.1c-0.2,0.4-0.4,0.8-0.7,1.1
			h8.3c-0.1,3.5-0.3,5.7-0.5,6.5c-0.1,0.6-0.4,1.1-0.9,1.5c-0.3,0.3-1.5,0.4-3.4,0.4l-0.4-1.9c0.7,0.1,1.1,0.1,1.4,0.1
			c0.7,0,1.2-0.1,1.3-0.3c0.3-0.4,0.5-2,0.5-4.6h-0.9c-0.8,1.8-1.7,3.1-2.5,3.9c-1.1,1.1-2.6,2.1-4.7,2.9l-1-1.6
			c1.9-0.7,3.4-1.6,4.4-2.6c0.7-0.7,1.3-1.6,1.9-2.7h-1.4c-0.5,0.9-1.2,1.7-2,2.3c-1,0.9-2.2,1.6-3.7,2.4l-1.1-1.4
			c1.3-0.6,2.4-1.2,3.4-1.9c0.5-0.3,1-0.8,1.4-1.4h-1.6c-0.8,0.8-1.8,1.4-2.9,2.1l-1.2-1.5c1.2-0.6,2.1-1.3,2.9-2
			c0.4-0.3,0.8-0.8,1.2-1.4h-2.5V148.1z M29.7,140.7h10.3v6.5H29.7V140.7z M31.6,143.3h6.5v-1.2h-6.5V143.3z M38.2,145.8v-1.2h-6.5
			v1.2H38.2z"/>
		<path d="M62.7,140.6v18.6h-1.8v-0.7H46.8v0.7H45v-18.6H62.7z M46.8,156.9h14.1v-14.7H46.8V156.9z M54.5,152.4v1.6
			c-1.9,0.5-4.1,1-6.6,1.5l-0.4-1.8C49.9,153.4,52.2,153,54.5,152.4z M47.6,144.6h6.7c0-0.6,0-1.3,0-2H56c0,0.7,0,1.3,0,2h2
			c-0.2-0.6-0.5-1.1-0.8-1.6l1.5-0.5c0.4,0.5,0.7,1.1,1,1.8l-0.9,0.2h1.6v1.6h-4.3c0.1,1.3,0.2,2.4,0.3,3.2c0.1,0.7,0.3,1.3,0.4,1.9
			c0.6-1.1,1.3-2.6,1.9-4.6l1.4,0.9c-1,2.5-1.8,4.3-2.6,5.5c0,0,0,0,0,0c0.1,0.1,0.1,0.2,0.2,0.3c0.3,0.7,0.6,1,0.9,1
			c0.1,0,0.3-0.8,0.6-2.5l1.6,1.2c-0.4,1.6-0.8,2.5-1,2.7c-0.2,0.3-0.6,0.5-1,0.5c-0.6,0-1.2-0.4-1.8-1.1c-0.2-0.3-0.4-0.5-0.5-0.8
			c-0.7,0.8-1.5,1.5-2.4,2.1l-1-1.3c1-0.8,1.9-1.6,2.6-2.4c-0.3-0.7-0.5-1.5-0.8-2.4c-0.3-1.1-0.5-2.6-0.6-4.4h-6.8V144.6z
			 M48.2,147.3h5v4.8h-5V147.3z M51.8,150.7v-2h-2.1v2H51.8z"/>
		<path d="M67,141.1h5.8v1.4c-0.2,0.7-0.4,1.5-0.6,2.2c0.7-0.6,1.3-1.2,1.8-1.9c0.4-0.6,0.8-1.5,1.2-2.6l1.6,0.1
			c-0.1,0.4-0.2,0.7-0.3,1h3c0.4,1.3,1.1,2.5,2,3.7c0.5-0.6,1-1.3,1.6-2.1h-2.5v-1.6H85v1.5c-0.7,1.3-1.5,2.5-2.4,3.6
			c0.8,0.9,1.7,1.8,2.8,2.6l-1.1,1.6c-0.9-0.6-1.6-1.3-2.2-1.9v1.2h-6.5V149c-0.6,0.5-1.3,1.1-2.1,1.6l-1.1-1.3
			c0.9-0.6,1.6-1.1,2.2-1.6c-0.4-0.3-0.8-0.7-1.2-1l1-0.9c0.5,0.3,0.9,0.6,1.3,0.9c0.2-0.2,0.3-0.3,0.4-0.5c0.1-0.1,0.2-0.3,0.3-0.4
			c-0.4-0.4-0.9-0.7-1.4-1l0.8-1.2c0.5,0.3,1,0.5,1.4,0.8c0.3-0.5,0.5-1,0.7-1.6h-2.2c-0.1,0.3-0.3,0.5-0.5,0.7
			c-0.6,1-1.4,1.8-2.5,2.6l-0.8-1.1c-0.2,0.7-0.4,1.5-0.7,2.2c0.5,1,0.9,1.9,1.1,2.6c0.3,0.8,0.4,1.5,0.4,2.1c0,1.1-0.2,1.9-0.6,2.3
			c-0.4,0.6-1.3,0.8-2.6,0.8l-0.6-1.9c0.4,0.1,0.7,0.1,1,0.1c0.3,0,0.5-0.1,0.7-0.3c0.2-0.2,0.3-0.5,0.3-1.1c0-0.6-0.1-1.2-0.3-1.8
			c-0.2-0.7-0.6-1.6-1.3-2.6c0.7-1.9,1.2-3.6,1.5-4.9h-2.1v16.6H67V141.1z M75,153.5l1.6,0.7c-1,1.6-2.2,2.9-3.6,4l-1.7-1.2
			C72.6,156,73.9,154.8,75,153.5z M73.5,151.3h11.1v1.7h-4.7v4.4c0,0.7-0.2,1.2-0.5,1.4c-0.3,0.3-0.8,0.5-1.6,0.5h-1.5l-0.4-1.9
			c0.6,0.1,1,0.2,1.4,0.2c0.5,0,0.7-0.2,0.7-0.5V153h-4.5V151.3z M76.5,148.1h5.1c-0.3-0.3-0.6-0.6-0.8-0.9
			c-0.7-0.9-1.3-1.8-1.9-2.8c-0.4,1-0.9,1.8-1.4,2.5C77.3,147.2,76.9,147.6,76.5,148.1z M82.1,153.6c1.4,1.4,2.5,2.5,3.3,3.5
			l-1.7,1.2c-0.7-1.1-1.7-2.4-3-3.9L82.1,153.6z"/>
		<path d="M88.9,142h3v-1.7h1.9v1.7h2.7v1.7h-2.7v1.8h1.5c1-1.1,1.9-2.5,2.9-4l1.6,0.9c-0.7,1.2-1.5,2.2-2.2,3.1h1.2v1.2
			c0.3-0.5,0.5-1.1,0.7-1.6c0.5-1.2,0.8-2.9,1.1-4.9l1.9,0.2c-0.2,1.2-0.4,2.2-0.6,3h5.4v1.7h-1.2c-0.1,3.5-0.7,6.3-1.8,8.5
			c-0.1,0.2-0.2,0.4-0.3,0.5c0.9,1.3,2,2.5,3.5,3.4l-1.2,1.7c-1.4-1.1-2.6-2.3-3.4-3.5c-1,1.2-2.3,2.4-3.9,3.6l-1.1-1.7
			c1.7-1,3-2.2,3.9-3.5c-0.8-1.5-1.5-3.2-2.1-5.1c-0.3,0.6-0.7,1.1-1,1.7l-1.3-1.6c0.4-0.6,0.8-1.3,1.1-1.9h-2.4
			c-0.3,0.3-0.5,0.5-0.7,0.8c-0.3,0.3-0.6,0.6-0.9,0.9h2.7v1.6c-0.7,0.8-1.5,1.5-2.5,2.2v0.3c1.3-0.1,2.5-0.3,3.6-0.5v1.7
			c-0.9,0.2-2.1,0.4-3.6,0.5v2.8c0,0.5-0.1,0.9-0.4,1.2c-0.3,0.4-0.7,0.6-1.1,0.6h-2.8l-0.4-2c0.7,0.1,1.4,0.1,2.2,0.1
			c0.4,0,0.6-0.2,0.6-0.5v-2c-1.3,0.1-2.8,0.3-4.5,0.4l-0.2-2c1.7,0,3.3-0.1,4.7-0.2v-1.2c0.6-0.3,1.3-0.8,2.1-1.5h-2.5
			c-1,0.8-2.1,1.5-3.4,2.3l-1-1.6c0.4-0.2,0.8-0.4,1.2-0.7h-0.6v-1.6h3c0.6-0.5,1.3-1,1.9-1.6h-5.6v-1.7H92v-1.8h-3V142z M101,146.6
			c0.5,2.3,1.2,4.2,2,5.7c0.8-1.8,1.2-4.2,1.4-7.2h-2.9c-0.1,0.2-0.1,0.4-0.2,0.6C101.2,146,101.1,146.3,101,146.6z"/>
		<path d="M120,139.9c0.3,0.5,0.6,1,0.9,1.6h8.6v1.8h-5c1.9,1.3,3.4,2.3,4.5,3.3l-1.8,1.2c-0.5-0.5-1-1-1.6-1.5
			c-3.2,0.4-8,0.7-14.4,1l-0.5-1.9c1.2,0,2.4,0,3.4,0c0.7-0.7,1.3-1.4,1.7-2.1h-5.7v-1.8h8.6c-0.3-0.5-0.6-0.9-0.9-1.3L120,139.9z
			 M127.2,147.9v9.2c0,0.7-0.2,1.2-0.5,1.6c-0.3,0.3-0.8,0.5-1.3,0.5h-3l-0.4-2l2.6,0.2c0.4,0,0.7-0.3,0.7-0.8v-0.7h-10.5v3.4h-2.1
			v-11.3H127.2z M114.7,151.2h10.5v-1.6h-10.5V151.2z M114.7,154.2h10.5v-1.4h-10.5V154.2z M123.9,145c-0.4-0.3-0.8-0.6-1.3-1
			l1.1-0.7h-5.5c-0.4,0.7-0.9,1.4-1.6,2.1C119.5,145.3,121.9,145.2,123.9,145z"/>
		<path d="M140.4,140.2c1.4,1.1,2.5,2.1,3.3,2.9l-1.2,0.8h8.8v1.9h-3.1c-0.9,2.5-2,4.6-3.3,6.3c-0.4,0.6-0.9,1.2-1.4,1.7
			c1.8,1.2,4.5,2.5,7.9,3.8l-1.2,2c-3.5-1.4-6.2-2.8-8.3-4.3c-0.4,0.3-0.8,0.6-1.2,0.9c-2.1,1.3-4.5,2.4-7.5,3.3l-1.1-2
			c3.2-0.8,5.6-1.8,7.2-2.8c0.3-0.2,0.7-0.4,1-0.7c-1.9-1.9-3.5-4.7-4.6-8.2h-3.4v-1.9h9c-0.7-0.8-1.6-1.7-2.6-2.7L140.4,140.2z
			 M137.8,145.8c1.1,3.1,2.5,5.4,4.2,6.8c0.6-0.6,1.2-1.3,1.7-2c1-1.3,1.7-2.9,2.3-4.8H137.8z"/>
		<path d="M159,140.1l1.9,0.8c-0.6,1.7-1.2,3.2-1.8,4.3v14.1h-2.1v-10.9c-0.7,0.9-1.4,1.8-2.2,2.7l-0.7-2.5c1-1.2,1.9-2.4,2.7-3.7
			C157.6,143.9,158.3,142.3,159,140.1z M162.2,140.3h2.1v7.6c3-1.5,5.5-3.1,7.5-4.9l1.2,1.8c-2.5,2.1-5.4,3.9-8.7,5.3v6.5
			c0,0.5,0.2,0.7,0.7,0.7h4.8c0.4,0,0.8-0.2,1-0.5c0.2-0.3,0.4-2,0.5-4.8l2,0.6c-0.2,3.3-0.5,5.2-1,5.7c-0.4,0.6-1.1,0.9-2.2,0.9
			h-5.8c-0.6,0-1.1-0.2-1.5-0.5c-0.4-0.4-0.6-0.9-0.6-1.4V140.3z"/>
		<path d="M176.9,141.4h8.1v-1.2h2v1.2h8.1v1.7H187v0.9h7.2v4.3H187v1h7.1v2.6h1.7v1.6h-1.7v2.7H187v1.2c0,0.7-0.2,1.1-0.5,1.4
			c-0.3,0.3-0.9,0.4-1.7,0.4h-2.4l-0.3-1.8c0.9,0.1,1.6,0.2,2.1,0.2c0.5,0,0.8-0.1,0.8-0.4v-1h-7.6v-1.6h7.6v-1.2h-8.9v-1.6h8.9
			v-1.1h-7.6v-1.6h7.6v-1h-7V144h7v-0.9h-8.1V141.4z M185,146.8v-1.3h-5v1.3H185z M192.2,146.8v-1.3H187v1.3H192.2z M187,150.8v1.1
			h5.3v-1.1H187z M187,153.5v1.2h5.3v-1.2H187z"/>
		<path d="M205.1,140.1h1.9v3.3h1.9v-3.3h1.9v3.3h1.5c0.5-0.7,0.9-1.7,1.4-2.9l2,0.7c-0.4,0.8-0.8,1.6-1.2,2.1h3.1v1.7h-5.8l1.5,0.5
			c-0.3,0.5-0.6,0.9-0.9,1.3h4.6v1.6h-7.8v1.2h7.4v1.6h-7.4v1.2h8.5v1.6h-6.8c0.9,0.8,1.8,1.4,2.5,1.8c1,0.5,2.4,0.9,4.2,1.3
			l-1.1,1.7c-2.1-0.6-3.7-1.3-4.7-1.9c-0.9-0.6-1.8-1.5-2.7-2.6v4.8h-2v-4.8c-0.6,0.7-1.2,1.3-1.9,1.8c-1.2,0.9-3,1.8-5.3,2.7
			l-1-1.6c2.4-0.8,4.1-1.4,5.1-2.1c0.5-0.3,1-0.7,1.4-1.1h-6.7v-1.6h8.4v-1.2h-7.2v-1.6h7.2v-1.2h-7.7v-1.6h4.7
			c-0.2-0.4-0.5-0.9-0.8-1.3l1.3-0.5h-5.9v-1.7h3c-0.3-0.7-0.6-1.4-1-2.2l1.9-0.7c0.4,0.8,0.7,1.8,1.1,2.9h1.5V140.1z M205.9,146.9
			h4c0.4-0.6,0.8-1.2,1.1-1.8h-6C205.4,145.7,205.7,146.3,205.9,146.9z"/>
	</g>
</g>
</svg>
